<?xml version="1.0" encoding="UTF-8"?>
<!--
  Flame Connect — full lockup WITH "Digitizing Africa" signature (560x210).
  Export for decks, documents and third parties ("here is our logo" requests).

  NOTE: the wordmark is live text — view this file where Montserrat Bold (800)
  is installed, otherwise it falls back to a generic sans. The ON-SITE logo is
  rendered by components/BrandLogo.tsx with the site's own Montserrat webfont.
  When the official OUTLINED vector arrives (Appendix C — brand assets), it
  supersedes this file and becomes the version BrandLogo displays.
-->
<svg xmlns="http://www.w3.org/2000/svg" viewBox="0 0 560 210">
  <circle cx="105" cy="105" r="76" fill="#F4511E"/>
  <path d="M20 88c38-34 132-34 170 0 12 11-4 26-16 16-28-24-110-24-138 0-12 10-28-5-16-16Z" fill="#FFFFFF"/>
  <path d="M30 126c34-26 116-26 150 0 10 9-3 21-13 13-26-18-98-18-124 0-10 8-23-4-13-13Z" fill="#FFFFFF" opacity="0.92"/>
  <g stroke="#7C8FAE" stroke-width="4" stroke-linecap="round" fill="#7C8FAE">
    <path d="M418 74 436 52" fill="none"/>
    <path d="M424 82 444 70" fill="none" opacity="0.85"/>
    <path d="M430 90 452 84" fill="none" opacity="0.7"/>
    <circle cx="438" cy="48" r="5.5" stroke="none"/>
    <circle cx="447" cy="68" r="5" stroke="none" opacity="0.85"/>
    <circle cx="455" cy="82" r="4.5" stroke="none" opacity="0.7"/>
  </g>
  <text x="216" y="92" font-family="Montserrat, 'Montserrat Variable', sans-serif" font-weight="800" font-size="64" letter-spacing="2" fill="#F4511E">FLAME</text>
  <text x="216" y="160" font-family="Montserrat, 'Montserrat Variable', sans-serif" font-weight="800" font-size="64" letter-spacing="2" fill="#F4511E">CONNECT</text>
  <text x="218" y="194" font-family="Poppins, system-ui, sans-serif" font-weight="500" font-size="21" letter-spacing="1.2" fill="#6B7280">Digitizing Africa</text>
</svg>
